<svg xmlns="http://www.w3.org/2000/svg" viewBox="0 0 26.35 19.11"><title>Asset 4</title><g id="Layer_2" data-name="Layer 2"><g id="Layer_1-2" data-name="Layer 1"><path d="M.35,1.52A79.62,79.62,0,0,1,14,.68c2.17.06,4.34.2,6.49.44.48,0,1,.1,1.44.17,1.23.16,1.4,0,2,1.25s.43,1.15-.4,2c-.4.39-.86.73-1.28,1.08L17.59,9.4c-1.13.94-2.51,2-4,1.4A9.66,9.66,0,0,1,11.23,9C8.89,6.88,6.84,4.54,3.89,3.31c-.14-.06-.29.07-.34.2A52.63,52.63,0,0,0,1.4,10.67c-.34,1.5-1.32,4.2-.7,5.77.48,1.2,1.69,1.29,2.83,1.39,2.67.24,5.34.44,8,.66s5.09.44,7.64.63c1.68.13,3.59.26,5.05-.76C27.55,16.05,26,11.26,26,8a.29.29,0,0,0-.57,0c0,3.48,1.81,8.9-2.64,10.45-1.53.53-3.47.15-5,0L11.9,18l-5.46-.45L3.89,17.3a5.28,5.28,0,0,1-1.72-.22c-1-.72-1-2.22-.81-3.26.27-1.68.63-3.34,1.06-5,.21-.76.43-1.53.67-2.28S3.5,4,4.68,4.28C6,4.59,7.39,6.14,8.37,7.05s2.15,2.09,3.31,3a7.61,7.61,0,0,0,2.72,1.77c1,.22,1.53-.36,2.24-.94l4.05-3.37a25.81,25.81,0,0,0,3.79-3.27C25.55,3,25.21,1.52,23.56,1A23.64,23.64,0,0,0,18.67.38C16.62.21,14.58.11,12.53.1A80.81,80.81,0,0,0,.2,1c-.35.05-.2.6.15.54Z" transform="translate(0 -0.09)"/></g></g></svg>