<svg xmlns="http://www.w3.org/2000/svg" viewBox="0 0 44.67 27.94"><title>Asset 2</title><g id="Layer_2" data-name="Layer 2"><g id="Layer_1-2" data-name="Layer 1"><path d="M44.58,12.57c.2-2.88-3.21-5.31-5.41-6.62-3-1.8-6.57-1.42-9.71-.15C25.4,7.45,21.61,10,17.8,12.11L12,15.38c-2,1.14-4.29,2.8-6.68,2.93-3.25.17-4.32-2.18-4.54-5-.16-2.08-.42-4.6.33-6.6.12-.31.37-1.06.8-1.17S3.45,6.67,3.8,7A17.45,17.45,0,0,1,5.52,8.68c1.55,1.77,2.53,3.92,4,5.75a18.59,18.59,0,0,0,7.65,5.29A46.09,46.09,0,0,0,28.59,23,17.06,17.06,0,0,0,39.7,20.56c2.42-1.38,5.42-3.42,5-6.63-.34-2.92-3.46-4.35-6.07-4.44-4.31-.15-8.57,2.14-12.63-.27-2.24-1.33-4.69-4.44-2.6-6.89,1.75-2,5.5-2,7.71-1a7.18,7.18,0,0,1,3.79,5.18c.38,2.22-.42,4.4-.33,6.63a13,13,0,0,0,1.3,4.44c1.1,2.72,1,5.26-1.39,7.24-1.94,1.6-4.51,2-6.94,2.32-1.89.24-7.41,1.1-6.32-2.43.58-1.88,3.14-3.22,4.78-4,2.15-1,4.45-1.69,6.69-2.47,2.52-.88,5.15-1.63,7.62-2.67,1.09-.46,2.31-1.16,2.36-2.51.09-2-3-2.12-2.52-.36.4,1.45,2.33.3,1.39-.8a.28.28,0,0,0-.34,0,.85.85,0,0,0,0,1.51.29.29,0,0,0,.39-.1A.79.79,0,0,0,41.17,12a.27.27,0,0,0-.27.07l-.14.15a.28.28,0,0,0,0,.34c.16.35.2.35.58.4a.26.26,0,0,0,.24-.14c.24-.48.1-.77-.33-1s-.59.29-.28.48l.48.81c.69.56.66,1-.12,1.3a6.16,6.16,0,0,1-2,1c-.7.26-1.41.49-2.11.74L31.86,18a45.14,45.14,0,0,0-7.31,2.88,8.71,8.71,0,0,0-4,4.09c-.72,1.84.94,2.62,2.52,2.9a19.79,19.79,0,0,0,7.22-.54,9.55,9.55,0,0,0,5.83-3.28A6,6,0,0,0,36.65,18a21,21,0,0,1-1.38-3.92A19.75,19.75,0,0,1,35.54,9C35.92,4.71,33.31.62,28.83.14,24.73-.29,20.18,2.75,22.94,7c2.95,4.55,7.86,4,12.53,3.3,3.34-.52,9.44-.07,8.62,4.85-.56,3.39-5.41,5.63-8.32,6.68-3.71,1.34-7.75.69-11.45-.32A46,46,0,0,1,15,18.1c-3.29-1.74-5.22-4.16-7.19-7.24A19.33,19.33,0,0,0,1.67,4.74a.29.29,0,0,0-.38.1A13.3,13.3,0,0,0,.11,11.48c.07,1.87,0,4.27,1.2,5.82,2.9,3.66,8.06.21,11-1.44C17.54,12.91,22.72,9.64,28.14,7c3.05-1.49,6.72-2.54,10-1,2.2,1,6.09,3.86,5.91,6.56,0,.36.53.36.56,0Z" transform="translate(-0.1 -0.1)"/></g></g></svg>