<svg xmlns="http://www.w3.org/2000/svg" viewBox="0 0 19.69 45.97"><title>Asset 3</title><g id="Layer_2" data-name="Layer 2"><g id="Layer_1-2" data-name="Layer 1"><path d="M9,44.49c-.59.1-2.62.08-2.62-.82,0-.42-.18-.19.12-.31.69-.27,1.87-.24,2.67-.47s2.65-.61,3.28-1.44c1-1.35-.55-2-1.71-1.71S8.35,40.81,7.1,41.19a4.32,4.32,0,0,1-1.17.27c-1.32-.07-1.26-1-.3-1.61A6.34,6.34,0,0,1,8.05,39c2.29-.43,5.12-.46,6-3a.29.29,0,0,0-.27-.36,29.31,29.31,0,0,0-3.94.71c-.85.18-4,1.28-4.67.58-1-1.07,2.48-1.76,3-1.87a27.92,27.92,0,0,0,3-.69c1-.32,2.5-.77,2.53-2,.09-3.4-6,.13-7.21.1-1.41,0-.94-.65-.2-1.19.54-.39,1.09-.77,1.63-1.17.37-.26,1.5-.85,1.54-1.39.06-.81-.93-1-1.51-1A6.42,6.42,0,0,0,3.82,30a10.85,10.85,0,0,0-2.55,9.07,8.75,8.75,0,0,0,5.59,7.13A7,7,0,0,0,15,43.59a12,12,0,0,0,1.28-12.14c-.5-1.19-1.56-2.46-1.89-3.68-.54-2,1.48-2.35,2.59-3.21a9.56,9.56,0,0,0,3.17-4.49.29.29,0,0,0-.41-.32,10.78,10.78,0,0,1-4.44,1.42c-.86.06-2-.28-2.78,0-.56.18-1.21.93-.62,1.51s2.76-.65,3.32-1.07c1.92-1.43,2.4-5.25,5.3-5,.29,0,.37-.39.15-.53a4.5,4.5,0,0,0-5.37.51.28.28,0,0,0,.27.47c3.75-1.21,3.16-5.81,4.52-8.74a.28.28,0,0,0-.39-.38,8.22,8.22,0,0,0-4.39,5.91l.55.08A21.92,21.92,0,0,0,12.9.75a.29.29,0,0,0-.52.07,31.88,31.88,0,0,0-1.45,8c-.11,2.28-.19,4.78,1.1,6.77a.28.28,0,0,0,.48,0c2.59-3.72-1.77-8.8-4.58-11-.24-.19-.49.16-.38.39,1.65,3.32,3.09,7,1.58,10.67h.54a20.6,20.6,0,0,0-5-7.62.28.28,0,0,0-.47.12C3.21,11,5.46,14.49,6.45,17c.63,1.62,1.17,4.72,3.33,4.92.27,0,.33-.31.19-.48a20.19,20.19,0,0,0-6.15-5.26.28.28,0,0,0-.39.38,48.67,48.67,0,0,0,4.31,7.69l.38-.38a10.27,10.27,0,0,0-5.47-1.18c-.3,0-.4.48-.07.56a6.57,6.57,0,0,1,4.55,3.65c.16.33.64,0,.49-.28a7.11,7.11,0,0,0-4.89-3.92l-.08.56a9.46,9.46,0,0,1,5.19,1.1c.23.12.55-.14.39-.39a49.12,49.12,0,0,1-4.31-7.69l-.39.39a20,20,0,0,1,6.05,5.17l.2-.48c-1.91-.18-2.87-4.73-3.45-6.22-.78-2-2.35-4.69-1.56-6.86l-.47.12a20.05,20.05,0,0,1,4.83,7.38.28.28,0,0,0,.54,0C11.24,12.05,9.75,8.16,8,4.71l-.39.39c2.58,2,6.75,6.78,4.38,10.2h.48c-1.33-2.06-1.15-4.81-1-7.16A31.17,31.17,0,0,1,12.93,1L12.41,1a21.4,21.4,0,0,1,2.9,12.89c0,.31.49.38.55.07A7.7,7.7,0,0,1,20,8.41L19.61,8c-1.25,2.7-.75,7.37-4.18,8.48l.28.47a3.93,3.93,0,0,1,4.68-.42l.14-.52c-3.37-.29-3.81,4.16-6.27,5.5a4.41,4.41,0,0,1-1.43.62c-.62,0,.21-.41.44-.46a25.53,25.53,0,0,1,2.64,0A11.41,11.41,0,0,0,20,20.24l-.41-.32a8.92,8.92,0,0,1-2.16,3.49,19.48,19.48,0,0,1-2.92,2c-1.43,1-1,1.9-.27,3.25C15.58,31,16.94,33.7,17,36.42c0,2.95-1.7,7.11-4.29,8.73-5.43,3.38-10.78-2.26-11-7.51a10.07,10.07,0,0,1,2.53-7.25c.79-.84,2.17-2,3.4-2,2.57-.07.48,1-.23,1.49s-2.31,1.22-2.55,2S5.75,33,6.4,33c2,.14,3.93-2.09,5.95-1.46,2.5.78-1.26,2.26-2,2.47-1.28.33-2.61.45-3.87.83-2.09.63-3,2.79-.19,2.65a31.12,31.12,0,0,0,4.67-.84,10.62,10.62,0,0,1,2-.4c1.33,0-.13.78-.63,1.1a6.79,6.79,0,0,1-2.23.77C8.24,38.51,6,38.44,4.62,40c-.64.73-.76,1.65.29,2.07,1.37.54,3.73-.82,4.95-1.33A5.77,5.77,0,0,1,11,40.24c1-.24,1.27.13.71,1.1a14,14,0,0,1-1.5.63A21.05,21.05,0,0,1,6,43a.3.3,0,0,0-.19.35c.32,1.6,1.92,2,3.41,1.71.36-.06.21-.6-.15-.54Z" transform="translate(-1.12 -0.61)"/></g></g></svg>