<svg xmlns="http://www.w3.org/2000/svg" viewBox="0 0 20.33 25.38"><title>Asset 1</title><g id="Layer_2" data-name="Layer 2"><g id="Layer_1-2" data-name="Layer 1"><path d="M5.25,10.51A15,15,0,0,1,6.42,6.88c.31-.63.22-1,.92-.44.5.36.61,1.43.72,2a.28.28,0,0,0,.54,0l1.69-6.87H9.75l1.41,5.1a.29.29,0,0,0,.27.21c5.35-.27,8.75,4.73,8.39,9.72a10.05,10.05,0,0,1-7.41,9.18c-4,.94-8.6-.64-10.63-4.31A9.46,9.46,0,0,1,3.7,10c.27-.24-.12-.64-.39-.4a10,10,0,0,0-2.87,10,9.58,9.58,0,0,0,8,6.85c8,1.21,14.14-7.11,11.24-14.54a8.92,8.92,0,0,0-4.59-5c-.91-.4-2.64-.3-3.33-.84-.91-.7-1.18-3.54-1.49-4.66a.28.28,0,0,0-.54,0L8.06,8.28H8.6a6.27,6.27,0,0,0-1.5-3,.28.28,0,0,0-.44,0,15.79,15.79,0,0,0-1.95,5.08c-.07.36.47.51.54.15Z" transform="translate(-0.1 -1.21)"/></g></g></svg>